<svg xmlns="http://www.w3.org/2000/svg" version="1.1" xmlns:xlink="http://www.w3.org/1999/xlink" xmlns:svgjs="http://svgjs.dev/svgjs" width="1000" height="1122" viewBox="0 0 1000 1122"><g transform="matrix(1,0,0,1,0.8025355260147649,0.4542510121457326)"><svg viewBox="0 0 220 247" data-background-color="#ffffff" preserveAspectRatio="xMidYMid meet" height="1122" width="1000" xmlns="http://www.w3.org/2000/svg" xmlns:xlink="http://www.w3.org/1999/xlink"><g id="tight-bounds" transform="matrix(1,0,0,1,-0.17655781572324258,-0.09999999999999432)"><svg viewBox="0 0 220.35311076360165 247.2" height="247.2" width="220.35311076360165"><g><svg viewBox="0 0 395.52000000000004 443.70848072524814" height="247.2" width="220.35311076360165"><g transform="matrix(1,0,0,1,0,357.7481500651617)"><svg viewBox="0 0 395.52000000000004 85.96033066008638" height="85.96033066008638" width="395.52000000000004"><g id="textblocktransform"><svg viewBox="0 0 395.52000000000004 85.96033066008638" height="85.96033066008638" width="395.52000000000004" id="textblock"><g><svg viewBox="0 0 395.52000000000004 85.96033066008638" height="85.96033066008638" width="395.52000000000004"><g transform="matrix(1,0,0,1,0,0)"><svg width="395.52000000000004" viewBox="4.849999904632568 -34.29999923706055 170.08999633789062 35.22999954223633" height="85.96033066008638" data-palette-color="#e65728"><g class="undefined-text-0" data-fill-palette-color="primary" id="text-0"><path d="M4.85 0.05L4.85-34.3 27.25-34.3 27.25-30.4 8.95-30.4 8.95-19.65 22.85-19.65 22.85-15.75 8.95-15.75 8.95 0.05 4.85 0.05ZM43.25 0.5Q39.7 0.5 36.87-1.2 34.05-2.9 32.45-5.88 30.85-8.85 30.85-12.6L30.85-12.6Q30.85-16.35 32.47-19.38 34.1-22.4 36.92-24.13 39.75-25.85 43.3-25.85L43.3-25.85Q46.85-25.85 49.67-24.15 52.5-22.45 54.1-19.43 55.7-16.4 55.7-12.65L55.7-12.65Q55.7-8.9 54.1-5.9 52.5-2.9 49.65-1.2 46.8 0.5 43.25 0.5L43.25 0.5ZM43.3-3.2Q47.05-3.2 49.32-5.8 51.6-8.4 51.6-12.65L51.6-12.65Q51.6-16.95 49.32-19.55 47.05-22.15 43.3-22.15L43.3-22.15Q40.85-22.15 38.95-20.95 37.05-19.75 36-17.6 34.95-15.45 34.95-12.65L34.95-12.65Q34.95-8.4 37.25-5.8 39.55-3.2 43.3-3.2L43.3-3.2ZM79.59 0.9Q77.8 1.05 76.52 0.45 75.25-0.15 74.25-1.45L74.25-1.45 69.45-9.3 63.55 0.05 58.85 0.05 66.84-12.75 58.75-25.45 63.55-25.45 69.45-16.1 75.09-25.45 79.84-25.45 72.05-12.85 77.7-3.55Q77.9-3.3 78.15-3.23 78.4-3.15 79.4-3.2L79.4-3.2 79.59 0.9ZM94.24 0.05L94.24-30.5 82.89-30.5 82.89-34.3 109.69-34.3 109.69-30.5 98.34-30.5 98.34 0.05 94.24 0.05ZM125.79-25.85Q127.24-25.85 129.24-25.35L129.24-25.35 129.14-21.4Q127.14-21.95 125.89-21.95L125.89-21.95Q123.54-21.95 122.24-20.85L122.24-20.85Q120.74-19.65 119.64-17.65L119.64-17.65 119.64 0.05 115.54 0.05 115.54-17.65Q115.54-21.55 113.44-23.35L113.44-23.35 116.19-25.9Q116.94-25.45 117.72-24.55 118.49-23.65 118.99-22.5L118.99-22.5Q120.09-23.9 121.24-24.65L121.24-24.65Q123.14-25.85 125.79-25.85L125.79-25.85ZM144.44 0.5Q140.89 0.5 138.06-1.2 135.24-2.9 133.64-5.88 132.04-8.85 132.04-12.6L132.04-12.6Q132.04-16.35 133.66-19.38 135.29-22.4 138.11-24.13 140.94-25.85 144.49-25.85L144.49-25.85Q148.04-25.85 150.86-24.15 153.69-22.45 155.29-19.43 156.89-16.4 156.89-12.65L156.89-12.65Q156.89-8.9 155.29-5.9 153.69-2.9 150.84-1.2 147.99 0.5 144.44 0.5L144.44 0.5ZM144.49-3.2Q148.24-3.2 150.51-5.8 152.79-8.4 152.79-12.65L152.79-12.65Q152.79-16.95 150.51-19.55 148.24-22.15 144.49-22.15L144.49-22.15Q142.04-22.15 140.14-20.95 138.24-19.75 137.19-17.6 136.14-15.45 136.14-12.65L136.14-12.65Q136.14-8.4 138.44-5.8 140.74-3.2 144.49-3.2L144.49-3.2ZM169.79 0.7Q166.19 0.7 164.19-1.43 162.19-3.55 162.19-7.55L162.19-7.55 162.19-31.45 166.29-31.45 166.29-25.35 173.99-25.35 173.99-21.65 166.29-21.65 166.29-7.55Q166.29-5.1 167.31-4.15 168.34-3.2 169.74-3.2L169.74-3.2Q170.74-3.2 171.36-3.4 171.99-3.6 173.04-4.15L173.04-4.15 174.94-0.8Q172.94 0.7 169.79 0.7L169.79 0.7Z" fill="#ffffff" data-fill-palette-color="primary"></path></g></svg></g></svg></g></svg></g></svg></g><g transform="matrix(1,0,0,1,39.17909598832972,0)"><svg viewBox="0 0 317.1618080233406 317.1618080233406" height="317.1618080233406" width="317.1618080233406"><g><svg></svg></g><g id="icon-0"><svg viewBox="0 0 317.1618080233406 317.1618080233406" height="317.1618080233406" width="317.1618080233406"><g><path d="M0 158.581c0-87.582 70.999-158.581 158.581-158.581 87.582 0 158.581 70.999 158.581 158.581 0 87.582-70.999 158.581-158.581 158.581-87.582 0-158.581-70.999-158.581-158.581zM158.581 309.41c83.301 0 150.829-67.528 150.829-150.829 0-83.301-67.528-150.829-150.829-150.829-83.301 0-150.829 67.528-150.829 150.829 0 83.301 67.528 150.829 150.829 150.829z" data-fill-palette-color="accent" fill="#ffffff" stroke="transparent"></path></g><g transform="matrix(1,0,0,1,63.86352516557781,69.04663693221342)"><svg viewBox="0 0 189.43475769218497 179.06853415891376" height="179.06853415891376" width="189.43475769218497"><g><svg xmlns="http://www.w3.org/2000/svg" xmlns:xlink="http://www.w3.org/1999/xlink" version="1.1" x="0" y="0" viewBox="201 128.5 444.6669921875 420.333984375" enable-background="new 0 0 841.89 595.28" xml:space="preserve" height="179.06853415891376" width="189.43475769218497" class="icon-s-0" data-fill-palette-color="accent" id="s-0"><g fill="#e65728" data-fill-palette-color="accent"><g fill="#e65728" data-fill-palette-color="accent"><path d="M423.667 548.833c-7.5-0.5-9.833-9.667-9.833-9.667C410 526.166 398.667 517 398.667 517 378.333 498.167 296 447.5 296 447.5 270.5 436 216 419 216 419c-12-6-15-20-15-20 5 0.5 26.5-8.5 26.5-8.5l-26.5-31 26-9.5-26-23.5 29-17.5c-19-145.5 109-180.5 109-180.5s-9.5 138 8 153.5c0 0 35.834-27.5 76.667-29" fill="#ffffff" data-fill-palette-color="accent"></path><path d="M423 548.834c7.5-0.5 9.834-9.668 9.834-9.668C436.666 526.166 448 517 448 517c20.334-18.832 102.667-69.5 102.667-69.5 25.5-11.5 80-28.5 80-28.5 12-6 15-20 15-20-5 0.5-26.5-8.5-26.5-8.5l26.5-31-26-9.5 26-23.5-29-17.5c19-145.5-109-180.5-109-180.5s9.5 138-8 153.5c0 0-35.834-27.5-76.667-29" fill="#ffffff" data-fill-palette-color="accent"></path></g><path fill="#ffffff" d="M526.875 349c-0.504-0.579-1.638-0.396-2.262-0.281-3.223 0.598-6.087 3.236-8.14 5.617-3.188 3.697-5.497 8.293-8.43 12.216-2.324 3.109-5.007 5.961-7.836 8.615-6.988 6.558-16.157 10.835-25.915 10.476-6.823-0.251-13.843-3.613-19.418-7.393 0 0 14.125-32.125 61-32C515.875 346.25 523.5 345.125 526.875 349z" data-fill-palette-color="accent"></path><path fill="#ffffff" d="M331.347 349.455c0.504-0.579 1.638-0.396 2.262-0.281 3.223 0.598 6.087 3.236 8.14 5.617 3.188 3.697 5.497 8.293 8.43 12.216 2.324 3.109 5.007 5.961 7.836 8.615 6.988 6.558 16.157 10.835 25.915 10.476 6.823-0.251 13.843-3.613 19.418-7.393 0 0-14.125-32.125-61-32C342.347 346.705 334.722 345.58 331.347 349.455z" data-fill-palette-color="accent"></path></g></svg></g></svg></g></svg></g></svg></g><g></g></svg></g><defs></defs></svg><rect width="220.35311076360165" height="247.2" fill="none" stroke="none" visibility="hidden"></rect></g></svg></g></svg>